<svg width="30" height="13" viewBox="0 0 30 13" fill="none" xmlns="http://www.w3.org/2000/svg">
<path d="M26.25 5.49998H25.1925C24.8062 5.49998 24.4275 5.3675 24.125 5.12498L19.2 1.18496C18.6475 0.74375 17.9538 0.5 17.2475 0.5H8.2125C7.16502 0.5 6.19377 1.02002 5.61252 1.89125L4.54875 3.48875C4.23 3.965 3.6975 4.25 3.12498 4.25C1.4025 4.25 0 5.6525 0 7.37498V9.875C0 11.5975 1.4025 13 3.12498 13C3.46998 13 3.75 12.72 3.75 12.375C3.75 12.03 3.46998 11.75 3.12498 11.75C2.09121 11.75 1.24998 10.9088 1.24998 9.875V7.37498C1.24998 6.34121 2.09121 5.49998 3.12498 5.49998C4.1175 5.49998 5.03748 5.0075 5.58873 4.18121L6.6525 2.58494C7.00125 2.06246 7.58502 1.74992 8.2125 1.74992H17.2475C17.6725 1.74992 18.0875 1.89617 18.42 2.16119L23.345 6.09992C23.8662 6.51869 24.5237 6.7499 25.1937 6.7499H26.25C28.0837 6.7499 28.75 8.61863 28.75 9.87488C28.75 11.1061 27.8075 11.7499 26.875 11.7499C26.53 11.7499 26.25 12.0299 26.25 12.3749C26.25 12.7199 26.53 12.9999 26.875 12.9999C28.6563 13 30 11.6562 30 9.875C30 7.75373 28.6863 5.49998 26.25 5.49998Z" fill="black"/>
</svg>
